<svg version="1.1" id="Layer_1" xmlns="http://www.w3.org/2000/svg" xmlns:xlink="http://www.w3.org/1999/xlink" x="0px" y="0px"
	 width="100%" viewBox="0 0 146 51" enable-background="new 0 0 146 51" xml:space="preserve">
<path fill="#FAFCFC" opacity="1.000000" stroke="none" 
	d="
M99.000000,52.000000 
	C66.041298,52.000000 33.582588,52.000000 1.061941,52.000000 
	C1.061941,35.063072 1.061941,18.125881 1.061941,1.094342 
	C49.666595,1.094342 98.333267,1.094342 146.969818,1.094342 
	C146.969818,18.083471 146.969818,35.041767 146.969818,52.000000 
	C131.126419,52.000000 115.313210,52.000000 99.000000,52.000000 
M87.719505,38.329781 
	C87.719505,38.329781 87.548752,38.335060 87.704079,37.825981 
	C87.501511,37.551971 87.298943,37.277962 86.753677,36.458843 
	C86.586235,35.632309 86.418800,34.805775 86.653992,33.558517 
	C86.471390,32.708080 86.288788,31.857645 85.926331,30.132286 
	C86.015564,27.760487 86.104797,25.388689 86.923126,22.809477 
	C87.220734,21.379864 87.518349,19.950253 87.884476,18.002310 
	C88.240250,17.661745 88.596024,17.321180 89.702248,16.922970 
	C90.224159,16.428425 90.746071,15.933880 92.046753,15.330468 
	C94.803329,17.419275 97.612183,19.443840 100.293205,21.625505 
	C101.530647,22.632463 102.518272,23.946424 104.186920,24.823410 
	C104.033279,23.537783 103.879639,22.252153 103.565582,20.537046 
	C103.565582,20.537046 103.698357,20.098236 104.281479,19.759478 
	C104.089317,18.492874 103.897156,17.226269 103.377800,15.257789 
	C100.058342,14.869781 96.744682,14.407316 93.415215,14.147665 
	C92.612549,14.085069 91.757500,14.694063 90.278656,14.978554 
	C89.846939,14.988951 89.415230,14.999349 88.125618,14.979554 
	C78.994995,14.901928 74.317917,19.744976 74.775177,28.803722 
	C75.232552,37.864670 80.886436,42.193752 92.713776,42.034210 
	C93.815704,41.098015 94.917641,40.161816 96.649239,38.971458 
	C97.097908,39.000004 97.546577,39.028553 98.427551,39.532364 
	C98.836853,39.503143 99.246162,39.473919 100.331924,39.580921 
	C101.243416,40.081623 102.154915,40.582325 103.442360,41.289543 
	C103.442360,39.930630 103.442360,39.007984 104.185143,37.692158 
	C104.951462,34.481625 105.717789,31.271091 106.524910,27.889639 
	C105.825844,28.128025 104.958641,28.423750 103.183182,28.729788 
	C100.762123,28.730829 98.341057,28.731871 95.399460,28.220808 
	C93.414726,28.220808 91.429985,28.220808 89.445251,28.220808 
	C89.415199,28.862028 89.385147,29.503250 89.355103,30.144470 
	C90.794014,30.448261 92.232933,30.752054 93.810616,31.893761 
	C93.773186,33.591053 93.735756,35.288345 93.411255,37.195389 
	C93.542221,37.469749 93.673187,37.744110 93.991234,38.480129 
	C93.991234,38.480129 94.113235,38.963081 93.416901,39.028320 
	C91.803925,39.177204 90.190948,39.326084 88.815010,39.486736 
	C88.815010,39.486736 88.584244,39.431381 88.611862,38.818634 
	C88.263664,38.681526 87.915474,38.544418 87.719505,38.329781 
M113.612442,18.230513 
	C113.418388,18.514519 113.224335,18.798525 112.739586,19.744795 
	C106.186928,25.632303 109.560448,38.218491 118.424698,41.692673 
	C123.950272,41.786797 129.732056,43.654251 135.262909,39.191345 
	C144.151978,32.114056 144.111725,24.081049 134.959473,16.309639 
	C134.262665,16.029348 133.565872,15.749060 132.126648,15.123016 
	C131.082031,14.827798 130.037415,14.532578 128.266586,13.986025 
	C125.017044,14.537517 121.767494,15.089008 117.986679,15.691618 
	C117.636169,15.727306 117.285667,15.762995 116.516670,15.367108 
	C115.707619,16.282476 114.898560,17.197845 114.014458,18.033270 
	C114.014458,18.033270 114.117149,18.071709 113.612442,18.230513 
M36.655144,41.794048 
	C37.097488,39.713123 37.451080,37.607925 38.011326,35.559242 
	C38.430641,34.025921 39.116264,32.565430 39.954952,31.776600 
	C41.134457,37.827194 45.072948,40.772968 51.629875,41.936989 
	C54.749775,41.612850 57.869678,41.288712 61.699505,40.946011 
	C63.830738,39.435265 66.256310,38.208225 68.037613,36.360184 
	C73.230202,30.973024 71.518448,21.215969 64.478592,17.621441 
	C64.068062,17.180347 63.657524,16.739254 62.902443,15.666435 
	C60.978416,15.462179 59.054386,15.257923 56.556370,14.682204 
	C55.183750,13.153876 53.824287,11.747662 52.186287,15.011787 
	C45.380306,15.637703 40.948929,19.002108 39.030357,26.057343 
	C37.366219,27.730173 35.702084,29.403006 33.873119,31.777456 
	C31.523661,38.365189 25.967562,41.767689 20.717670,39.112915 
	C20.774891,31.735577 20.832111,24.358236 21.529383,16.720119 
	C22.924520,16.030247 24.319656,15.340374 26.786953,14.120337 
	C23.718344,14.120337 21.828180,14.120337 19.064398,14.072168 
	C16.729916,14.085618 14.395432,14.099068 11.244127,13.922696 
	C9.911675,14.013087 8.579225,14.103478 7.969720,14.144827 
	C12.935807,22.648697 9.569257,31.620554 9.686724,40.481129 
	C8.614456,40.808754 7.542189,41.136379 5.367626,41.800804 
	C8.402426,41.981014 10.209915,42.088345 12.555113,42.659988 
	C14.364186,42.506439 16.173260,42.352890 18.897846,42.062729 
	C22.604599,42.109833 26.311354,42.156940 30.415871,42.624397 
	C31.271860,42.480026 32.127850,42.335651 33.693550,42.055172 
	C34.412975,42.008255 35.132397,41.961342 36.655144,41.794048 
M3.944004,43.834812 
	C3.795411,43.585129 3.695925,43.209511 3.482434,43.126259 
	C3.316543,43.061577 3.008466,43.361534 2.763585,43.499420 
	C3.008761,43.637798 3.253937,43.776176 3.944004,43.834812 
z"/>
<path fill="#304263" opacity="1.000000" stroke="none" 
	d="
M86.194031,23.016890 
	C86.104797,25.388689 86.015564,27.760487 85.938393,30.939863 
	C86.050751,32.491375 86.151054,33.235306 86.251358,33.979240 
	C86.418800,34.805775 86.586235,35.632309 86.891495,36.983593 
	C87.202454,37.783913 87.375603,38.059486 87.548752,38.335060 
	C87.548752,38.335060 87.719505,38.329781 87.704895,38.627293 
	C87.988274,39.093662 88.286263,39.262524 88.584244,39.431381 
	C88.584244,39.431381 88.815010,39.486736 88.805695,39.790268 
	C89.866577,40.728470 90.936790,41.363140 92.006996,41.997810 
	C80.886436,42.193752 75.232552,37.864670 74.775177,28.803722 
	C74.317917,19.744976 78.994995,14.901928 88.631714,15.319315 
	C89.075806,16.099590 89.013802,16.540104 88.951797,16.980618 
	C88.596024,17.321180 88.240250,17.661745 87.576210,18.492603 
	C86.909973,20.327560 86.552002,21.672224 86.194031,23.016890 
z"/>
<path fill="#22385E" opacity="1.000000" stroke="none" 
	d="
M20.889332,16.980898 
	C20.832111,24.358236 20.774891,31.735577 20.209183,39.558205 
	C17.077187,39.978252 14.453677,39.953014 11.887314,39.468243 
	C11.983289,30.709980 12.022119,22.411249 12.060949,14.112517 
	C14.395432,14.099068 16.729916,14.085618 19.576010,14.405074 
	C20.354858,15.485620 20.622095,16.233259 20.889332,16.980898 
z"/>
<path fill="#334668" opacity="1.000000" stroke="none" 
	d="
M116.935158,15.798683 
	C117.285667,15.762995 117.636169,15.727306 118.679520,15.798525 
	C120.082115,16.754162 120.791870,17.602892 121.387726,18.878487 
	C121.338943,25.491018 121.404060,31.676685 121.149368,37.976440 
	C119.894135,39.036686 118.958710,39.982838 118.023277,40.928993 
	C109.560448,38.218491 106.186928,25.632303 113.150276,19.350885 
	C113.746361,18.661888 113.931755,18.366800 114.117157,18.071711 
	C114.117149,18.071709 114.014458,18.033270 114.359245,17.995697 
	C115.447739,17.238308 116.191444,16.518496 116.935158,15.798683 
z"/>
<path fill="#2D4063" opacity="1.000000" stroke="none" 
	d="
M39.602127,25.923777 
	C40.948929,19.002108 45.380306,15.637703 52.483944,15.389905 
	C51.978664,17.780746 51.175728,19.793470 50.059246,22.001543 
	C49.869137,25.870447 49.992577,29.544001 50.245621,33.583508 
	C50.549450,34.971672 50.723679,35.993881 50.697121,37.165955 
	C50.667873,37.872093 50.839417,38.428375 51.010376,39.411095 
	C50.988247,40.405903 50.966698,40.974277 50.945152,41.542648 
	C45.072948,40.772968 41.134457,37.827194 39.872948,30.996765 
	C39.728004,28.785881 39.665066,27.354828 39.602127,25.923777 
z"/>
<path fill="#EFF2F6" opacity="1.000000" stroke="none" 
	d="
M50.897907,37.016094 
	C50.723679,35.993881 50.549450,34.971672 50.427643,33.138084 
	C50.444305,28.819868 50.408546,25.313032 50.372795,21.806194 
	C51.175728,19.793470 51.978664,17.780746 52.877838,15.418089 
	C53.824287,11.747662 55.183750,13.153876 56.892937,15.226784 
	C61.977020,23.217340 60.316380,31.063385 58.394127,39.083366 
	C55.962730,41.557934 53.900547,41.456860 51.912094,38.727219 
	C51.565407,37.956326 51.231659,37.486210 50.897907,37.016094 
z"/>
<path fill="#2D4163" opacity="1.000000" stroke="none" 
	d="
M135.151138,16.880623 
	C144.111725,24.081049 144.151978,32.114056 134.561432,39.090538 
	C132.532318,38.649879 131.204681,38.310020 129.910217,37.554493 
	C131.366180,30.142349 131.979874,23.197430 128.738556,15.941256 
	C128.896637,14.997350 128.944717,14.617354 128.992798,14.237360 
	C130.037415,14.532578 131.082031,14.827798 132.571259,15.595902 
	C133.727631,16.339399 134.439377,16.610012 135.151138,16.880623 
z"/>
<path fill="#344663" opacity="1.000000" stroke="none" 
	d="
M58.673958,38.908291 
	C60.316380,31.063385 61.977020,23.217340 57.179932,15.412515 
	C59.054386,15.257923 60.978416,15.462179 62.921253,16.394207 
	C62.940063,23.306700 62.940063,29.491419 62.940063,35.932400 
	C67.982040,34.269325 69.374756,29.704010 67.316711,24.884430 
	C66.363686,22.652613 65.770714,20.267048 65.014511,17.951185 
	C71.518448,21.215969 73.230202,30.973024 68.037613,36.360184 
	C66.256310,38.208225 63.830738,39.435265 61.188103,40.678223 
	C60.009117,39.909718 59.341537,39.409004 58.673958,38.908291 
z"/>
<path fill="#2D3E5D" opacity="1.000000" stroke="none" 
	d="
M93.698326,36.985638 
	C93.735756,35.288345 93.773186,33.591053 93.913429,31.172808 
	C94.650826,29.878872 95.285408,29.305891 95.919998,28.732910 
	C98.341057,28.731871 100.762123,28.730829 103.636566,29.141525 
	C103.874084,32.397285 103.658218,35.241310 103.442360,38.085335 
	C103.442360,39.007984 103.442360,39.930630 103.442360,41.289543 
	C102.154915,40.582325 101.243416,40.081623 99.778656,39.265064 
	C98.815338,38.985172 98.405296,39.021137 97.995247,39.057102 
	C97.546577,39.028553 97.097908,39.000004 96.017914,39.045509 
	C94.962135,39.067402 94.537689,39.015244 94.113235,38.963081 
	C94.113235,38.963081 93.991234,38.480129 93.930763,37.984985 
	C93.812973,37.321774 93.755646,37.153706 93.698326,36.985638 
z"/>
<path fill="#2D3A51" opacity="1.000000" stroke="none" 
	d="
M11.830168,39.927773 
	C14.453677,39.953014 17.077187,39.978252 20.066336,40.006088 
	C25.967562,41.767689 31.523661,38.365189 34.383522,31.399670 
	C35.213223,34.652729 35.532520,38.283577 35.851822,41.914425 
	C35.132397,41.961342 34.412975,42.008255 32.971508,42.046967 
	C31.505680,42.093861 30.761892,42.148952 30.018106,42.204048 
	C26.311354,42.156940 22.604599,42.109833 18.019588,42.050404 
	C15.433354,42.090611 13.725379,42.143147 12.017405,42.195679 
	C10.209915,42.088345 8.402426,41.981014 5.367626,41.800804 
	C7.542189,41.136379 8.614456,40.808754 10.243313,40.323128 
	C11.143325,40.086014 11.486746,40.006893 11.830168,39.927773 
z"/>
<path fill="#1F3964" opacity="1.000000" stroke="none" 
	d="
M64.746552,17.786312 
	C65.770714,20.267048 66.363686,22.652613 67.316711,24.884430 
	C69.374756,29.704010 67.982040,34.269325 62.940063,35.932400 
	C62.940063,29.491419 62.940063,23.306700 63.093529,16.710072 
	C63.657524,16.739254 64.068062,17.180347 64.746552,17.786312 
z"/>
<path fill="#5C6373" opacity="1.000000" stroke="none" 
	d="
M103.698357,20.098236 
	C103.698357,20.098236 103.565582,20.537046 103.532608,21.088150 
	C103.539474,22.799898 103.579315,23.960545 103.619164,25.121189 
	C102.518272,23.946424 101.530647,22.632463 100.293205,21.625505 
	C97.612183,19.443840 94.803329,17.419275 91.620041,15.237190 
	C91.193336,15.143912 90.926544,14.994212 90.926544,14.994213 
	C91.757500,14.694063 92.612549,14.085069 93.415215,14.147665 
	C96.744682,14.407316 100.058342,14.869781 103.393265,15.934385 
	C103.505280,17.773399 103.601814,18.935818 103.698357,20.098236 
z"/>
<path fill="#677486" opacity="1.000000" stroke="none" 
	d="
M11.887314,39.468246 
	C11.486746,40.006893 11.143325,40.086014 10.535546,40.143562 
	C9.569257,31.620554 12.935807,22.648697 7.969720,14.144827 
	C8.579225,14.103478 9.911675,14.013087 11.652538,14.017607 
	C12.022119,22.411249 11.983289,30.709980 11.887314,39.468246 
z"/>
<path fill="#D3DEEB" opacity="1.000000" stroke="none" 
	d="
M36.253483,41.854237 
	C35.532520,38.283577 35.213223,34.652729 34.465935,31.048861 
	C35.702084,29.403006 37.366219,27.730173 39.316242,25.990559 
	C39.665066,27.354828 39.728004,28.785881 39.737125,30.644722 
	C39.116264,32.565430 38.430641,34.025921 38.011326,35.559242 
	C37.451080,37.607925 37.097488,39.713123 36.253483,41.854237 
z"/>
<path fill="#454D5F" opacity="1.000000" stroke="none" 
	d="
M129.877045,37.970161 
	C131.204681,38.310020 132.532318,38.649879 134.241241,39.171112 
	C129.732056,43.654251 123.950272,41.786797 118.223984,41.310833 
	C118.958710,39.982838 119.894135,39.036686 121.378845,38.215256 
	C124.784943,42.669949 127.368492,41.126175 129.877045,37.970161 
z"/>
<path fill="#D7DDE5" opacity="1.000000" stroke="none" 
	d="
M103.813751,37.888748 
	C103.658218,35.241310 103.874084,32.397285 104.090683,29.136368 
	C104.958641,28.423750 105.825844,28.128025 106.524910,27.889639 
	C105.717789,31.271091 104.951462,34.481625 103.813751,37.888748 
z"/>
<path fill="#68727C" opacity="1.000000" stroke="none" 
	d="
M128.629700,14.111692 
	C128.944717,14.617354 128.896637,14.997350 128.427216,15.840591 
	C124.837425,13.990310 123.338806,16.733610 121.501617,18.451622 
	C120.791870,17.602892 120.082115,16.754162 118.945160,15.772966 
	C121.767494,15.089008 125.017044,14.537517 128.629700,14.111692 
z"/>
<path fill="#525D6E" opacity="1.000000" stroke="none" 
	d="
M58.394127,39.083366 
	C59.341537,39.409004 60.009117,39.909718 60.833138,40.687500 
	C57.869678,41.288712 54.749775,41.612850 51.287514,41.739819 
	C50.966698,40.974277 50.988247,40.405903 51.239029,39.418217 
	C51.468269,38.998901 51.925034,39.028000 51.925034,39.028000 
	C53.900547,41.456860 55.962730,41.557934 58.394127,39.083366 
z"/>
<path fill="#D7DDE5" opacity="1.000000" stroke="none" 
	d="
M95.659729,28.476858 
	C95.285408,29.305891 94.650826,29.878872 93.844040,30.753851 
	C92.232933,30.752054 90.794014,30.448261 89.355103,30.144470 
	C89.385147,29.503250 89.415199,28.862028 89.445251,28.220808 
	C91.429985,28.220808 93.414726,28.220808 95.659729,28.476858 
z"/>
<path fill="#EBEFF2" opacity="1.000000" stroke="none" 
	d="
M93.765068,38.995701 
	C94.537689,39.015244 94.962135,39.067402 95.703079,39.172592 
	C94.917641,40.161816 93.815704,41.098015 92.360382,42.016010 
	C90.936790,41.363140 89.866577,40.728470 88.687172,39.784382 
	C90.190948,39.326084 91.803925,39.177204 93.765068,38.995701 
z"/>
<path fill="#677486" opacity="1.000000" stroke="none" 
	d="
M21.209358,16.850510 
	C20.622095,16.233259 20.354858,15.485620 20.012819,14.429158 
	C21.828180,14.120337 23.718344,14.120337 26.786953,14.120337 
	C24.319656,15.340374 22.924520,16.030247 21.209358,16.850510 
z"/>
<path fill="#EBEFF2" opacity="1.000000" stroke="none" 
	d="
M103.989914,19.928856 
	C103.601814,18.935818 103.505280,17.773399 103.556870,16.285324 
	C103.897156,17.226269 104.089317,18.492874 103.989914,19.928856 
z"/>
<path fill="#E5ECF3" opacity="1.000000" stroke="none" 
	d="
M116.725914,15.582895 
	C116.191444,16.518496 115.447739,17.238308 114.396774,18.035667 
	C114.898560,17.197845 115.707619,16.282476 116.725914,15.582895 
z"/>
<path fill="#EEF4F6" opacity="1.000000" stroke="none" 
	d="
M12.286259,42.427834 
	C13.725379,42.143147 15.433354,42.090611 17.561832,42.118713 
	C16.173260,42.352890 14.364186,42.506439 12.286259,42.427834 
z"/>
<path fill="#EBEFF2" opacity="1.000000" stroke="none" 
	d="
M103.903046,24.972300 
	C103.579315,23.960545 103.539474,22.799898 103.612808,21.302889 
	C103.879639,22.252153 104.033279,23.537783 103.903046,24.972300 
z"/>
<path fill="#EBEFF2" opacity="1.000000" stroke="none" 
	d="
M86.558578,22.913183 
	C86.552002,21.672224 86.909973,20.327560 87.541954,18.751770 
	C87.518349,19.950253 87.220734,21.379864 86.558578,22.913183 
z"/>
<path fill="#68727C" opacity="1.000000" stroke="none" 
	d="
M135.055298,16.595131 
	C134.439377,16.610012 133.727631,16.339399 132.942474,15.768780 
	C133.565872,15.749060 134.262665,16.029348 135.055298,16.595131 
z"/>
<path fill="#EBEFF2" opacity="1.000000" stroke="none" 
	d="
M90.602600,14.986383 
	C90.926544,14.994212 91.193336,15.143912 91.230667,15.291624 
	C90.746071,15.933880 90.224159,16.428425 89.327026,16.951794 
	C89.013802,16.540104 89.075806,16.099590 89.060654,15.334411 
	C89.415230,14.999349 89.846939,14.988951 90.602600,14.986383 
z"/>
<path fill="#EBEFF2" opacity="1.000000" stroke="none" 
	d="
M86.452675,33.768879 
	C86.151054,33.235306 86.050751,32.491375 86.028320,31.377323 
	C86.288788,31.857645 86.471390,32.708080 86.452675,33.768879 
z"/>
<path fill="#EEF4F6" opacity="1.000000" stroke="none" 
	d="
M30.216988,42.414223 
	C30.761892,42.148952 31.505680,42.093861 32.616653,42.115021 
	C32.127850,42.335651 31.271860,42.480026 30.216988,42.414223 
z"/>
<path fill="#EEF4F6" opacity="1.000000" stroke="none" 
	d="
M3.721559,43.874683 
	C3.253937,43.776176 3.008761,43.637798 2.763586,43.499420 
	C3.008466,43.361534 3.316543,43.061577 3.482434,43.126259 
	C3.695925,43.209511 3.795411,43.585129 3.721559,43.874683 
z"/>
<path fill="#EBEFF2" opacity="1.000000" stroke="none" 
	d="
M87.626419,38.080521 
	C87.375603,38.059486 87.202454,37.783913 87.062836,37.256149 
	C87.298943,37.277962 87.501511,37.551971 87.626419,38.080521 
z"/>
<path fill="#D7DDE5" opacity="1.000000" stroke="none" 
	d="
M93.554794,37.090515 
	C93.755646,37.153706 93.812973,37.321774 93.837219,37.754158 
	C93.673187,37.744110 93.542221,37.469749 93.554794,37.090515 
z"/>
<path fill="#EBEFF2" opacity="1.000000" stroke="none" 
	d="
M88.598053,39.125008 
	C88.286263,39.262524 87.988274,39.093662 87.628784,38.666058 
	C87.915474,38.544418 88.263664,38.681526 88.598053,39.125008 
z"/>
<path fill="#E5ECF3" opacity="1.000000" stroke="none" 
	d="
M113.864799,18.151112 
	C113.931755,18.366800 113.746361,18.661888 113.295624,19.019753 
	C113.224335,18.798525 113.418388,18.514519 113.864799,18.151112 
z"/>
<path fill="#D7DDE5" opacity="1.000000" stroke="none" 
	d="
M98.211395,39.294731 
	C98.405296,39.021137 98.815338,38.985172 99.440430,39.196953 
	C99.246162,39.473919 98.836853,39.503143 98.211395,39.294731 
z"/>
<path fill="#E7EDF2" opacity="1.000000" stroke="none" 
	d="
M121.387726,18.878487 
	C123.338806,16.733610 124.837425,13.990310 128.317230,16.404501 
	C131.979874,23.197430 131.366180,30.142349 129.910217,37.554497 
	C127.368492,41.126175 124.784943,42.669949 121.698647,38.101166 
	C121.404060,31.676685 121.338943,25.491018 121.387726,18.878487 
z"/>
<path fill="#707C91" opacity="1.000000" stroke="none" 
	d="
M50.059242,22.001543 
	C50.408546,25.313032 50.444305,28.819868 50.298038,32.772133 
	C49.992577,29.544001 49.869137,25.870447 50.059242,22.001543 
z"/>
<path fill="#707C91" opacity="1.000000" stroke="none" 
	d="
M51.912094,38.727219 
	C51.925034,39.028000 51.468269,38.998901 51.239616,38.991779 
	C50.839417,38.428375 50.667873,37.872093 50.697121,37.165955 
	C51.231659,37.486210 51.565407,37.956326 51.912094,38.727219 
z"/>
</svg>